<svg width="100" height="100" viewBox="0 0 100 100" fill="none" xmlns="http://www.w3.org/2000/svg">
<g clip-path="url(#clip0_2021_817)">
<path d="M0.195312 25.0158C0.195312 11.2415 11.3782 0.0546875 25.1525 0.0546875H75.0747C88.8529 0.0546875 100.036 11.2376 100.036 25.0158V74.9341C100.036 88.7123 88.8529 99.8951 75.0747 99.8951H25.1525C11.3782 99.899 0.195312 88.7123 0.195312 74.938V25.0158Z" fill="#020504"/>
<path fill-rule="evenodd" clip-rule="evenodd" d="M66.5653 19.1016H57.5109L65.0673 32.37L48.4525 19.1016H39.398L47.7054 35.3078L30.3435 19.1016H21.2891L30.3435 39.7475L21.2891 81.0354H30.3435L47.7054 36.8097L39.398 81.0354H48.4525L65.0673 33.8486L57.5109 81.0354H66.5653L83.1801 29.4323L66.5653 19.121V19.1016Z" fill="white"/>
</g>
<defs>
<clipPath id="clip0_2021_817">
<rect width="100" height="100" fill="white"/>
</clipPath>
</defs>
</svg>
