<svg width="240" height="200" viewBox="0 0 240 200" fill="none" xmlns="http://www.w3.org/2000/svg">
<path fill-rule="evenodd" clip-rule="evenodd" d="M125.27 2.01353C150.452 2.81703 155.741 38.3217 172.861 56.7172C188.676 73.7103 215.385 81.4285 220.258 104.077C225.815 129.903 217.918 158.928 198.795 177.243C179.901 195.337 150.966 200.24 125.27 195.046C103.272 190.599 93.5873 167.106 76.5704 152.538C56.7631 135.582 19.543 130.072 19.0057 104.077C18.4697 78.1453 55.7715 71.5919 74.5251 53.5796C92.6083 36.2112 100.15 1.21206 125.27 2.01353Z" fill="#FAEAEA"/>
<path d="M87 110.023C88.4501 117.584 87.5656 124.922 88.0061 132.54C88.1339 134.75 101.823 133.564 103.768 133.564C109.306 133.564 122.123 136.415 119.698 127.537C118.598 123.509 119.195 118.805 119.195 114.629C119.195 109.592 117.494 109 112.153 109C104.391 109 96.8833 110.023 89.0122 110.023" stroke="black" stroke-linecap="round" stroke-linejoin="round"/>
<path d="M128 115C141.982 116.196 155.98 115.986 170 115.986" stroke="black" stroke-linecap="round" stroke-linejoin="round"/>
<path d="M131 120C141.166 122.511 151.593 121.945 162 121.945" stroke="black" stroke-linecap="round" stroke-linejoin="round"/>
<path d="M131 128C141.695 128.228 152.282 129 163 129" stroke="black" stroke-linecap="round" stroke-linejoin="round"/>
<path d="M90.9277 142.623C88.8641 152.647 93.1574 149.547 100.842 149.547C105.257 149.547 110.317 150.757 111.742 146.03C114 138.538 100.829 141.634 96.1457 141.634C95.2276 141.634 90 141.156 90 142.238C90 145.142 91.0906 146.139 92.2032 144.821C94.0721 142.607 91.9309 146.995 91.9713 147.569C92.0919 149.284 97.796 141.18 97.1313 145.591C96.5951 149.148 94.5538 150.617 98.8127 146.58C102.294 143.28 97.9562 147.459 98.8707 147.459C102.474 147.459 100.436 144.877 100.436 148.943C100.436 149.36 102.703 147.289 102.929 147.074C104.922 145.185 103.678 147.019 104.726 147.129C107.06 147.375 106.582 144.993 106.582 148.943C106.582 148.993 106.629 147.634 107.104 147.184C107.55 146.761 107.557 147.286 107.625 147.569C107.894 148.673 109.454 146.763 109.713 146.58" stroke="black" stroke-linecap="round" stroke-linejoin="round"/>
<path d="M119.784 143.073C119.784 147.269 119.144 150.935 124.25 150.935C126.78 150.935 129.31 150.935 131.84 150.935C134.036 150.935 136.231 150.935 138.427 150.935C140.152 150.935 141.955 151.081 143.673 150.935C144.941 150.827 142.126 147.55 141.943 146.567C141.484 144.101 142.2 142.263 138.65 143.291C135.536 144.194 132.552 144.056 129.329 144.056C125.478 144.056 113.924 144.056 117.775 144.056" stroke="black" stroke-linecap="round" stroke-linejoin="round"/>
<path d="M86 91.7133C86.7546 91.0572 91.7144 84.0492 92.1463 84.0224C93.5032 83.9381 93.1763 87.6887 93.3984 88.4334C94.6602 92.6652 98.4157 88.5374 100.341 86.6237C103.906 83.0821 105.256 86.7755 105.463 90.6954C105.731 95.7501 107.035 88.5763 108.423 90.2995C111.977 94.7148 119.515 71.2554 122.878 69.093C124.244 68.2148 125.131 66.3066 126.463 65.2476C128.841 63.3576 128 72.8176 128 75.6529C128 81.9349 127.757 88.2643 128 94.5408C128.085 96.7241 130.802 90.4288 131.13 90.1299C132.703 88.6972 134.515 81.8262 135.398 84.3617C137.201 89.5358 136.078 92.4537 139.268 87.2458C142.315 82.2729 143.872 88.8457 144.902 91.7133C145.9 94.4883 147.426 87.862 150.309 92.7312C151.217 94.2652 166.881 92.7312 170 92.7312" stroke="black" stroke-linecap="round" stroke-linejoin="round"/>
<path d="M70 61.0962C71.9951 75.3089 73.0484 89.7241 73.0484 104.077C73.0484 116.834 71.0161 129.385 71.0161 142.081C71.0161 147.577 72.0323 152.793 72.0323 158.198C72.0323 158.954 75.0228 164.519 75.3064 164.702C78.603 166.825 88.988 164.991 92.8064 164.702C100.748 164.102 108.549 163.91 116.516 163.91C126.999 163.91 137.388 164.928 147.79 164.928C159.577 164.928 171.174 165.946 183.016 165.946C188.596 165.946 189.673 166.915 188.661 160.63C186.118 144.835 183.806 129.529 183.806 113.465C183.806 102.45 184.822 91.3283 184.822 80.4375C184.822 76.5038 185.838 72.6252 185.838 68.5613C185.838 61.8307 184.93 61.3682 178.161 60.3045C167.218 58.5848 156.164 59.0603 145.08 59.0603C120.392 59.0603 95.7042 59.0603 71.0161 59.0603" stroke="black" stroke-width="2" stroke-linecap="round" stroke-linejoin="round"/>
</svg>
