<svg width="240" height="200" viewBox="0 0 240 200" fill="none" xmlns="http://www.w3.org/2000/svg">
<path fill-rule="evenodd" clip-rule="evenodd" d="M125.984 3.25648C154.738 5.24143 177.883 25.4577 194.045 49.3233C208.53 70.7136 214.432 97.4094 206.362 121.95C199.048 144.191 176.005 153.701 155.82 165.562C131.768 179.696 107.163 206.987 81.9441 195.06C56.695 183.119 64.1755 146.361 57.7437 119.18C51.1907 91.4866 30.588 63.5599 45.0246 39.0359C60.7725 12.2841 95.0168 1.11867 125.984 3.25648Z" fill="#F5EAFA"/>
<path d="M105 111.349C106.901 115.911 109.074 119.74 111.681 123.834C112.526 125.162 116.533 118.118 117.462 117.024C123.321 110.122 133.221 102.873 142 100" stroke="black" stroke-linecap="round" stroke-linejoin="round"/>
<path d="M129.256 72.2747C114.373 70.5374 103.468 74.0657 91.4715 83.4889C81.971 90.9513 81.6001 106.783 84.8345 117.327C86.9425 124.199 92.1771 132.369 97.9113 136.821C107.136 143.985 117.807 143.248 129.125 142.624C140.081 142.02 144.519 132.748 149.364 124.173C154.706 114.719 160.179 104.066 157.118 92.8775C151.622 72.7854 123.696 57.4618 104.417 61.7126" stroke="black" stroke-width="2" stroke-linecap="round" stroke-linejoin="round"/>
</svg>
