<?xml version="1.0" encoding="UTF-8"?>
<svg id="Layer_1" xmlns="http://www.w3.org/2000/svg" version="1.1" viewBox="0 0 241 199.98">
  <!-- Generator: Adobe Illustrator 29.5.1, SVG Export Plug-In . SVG Version: 2.1.0 Build 141)  -->
  <defs>
    <style>
      .st0 {
        fill: none;
        stroke: #000;
        stroke-linecap: round;
        stroke-linejoin: round;
        stroke-width: 2px;
      }

      .st1 {
        fill: #f9f9f9;
      }

      .st2 {
        fill: #eaf3fa;
        fill-rule: evenodd;
      }
    </style>
  </defs>
  <path class="st2" d="M116.17,8.03c17.89-.39,35.86,2.99,50.73,12.96,15.27,10.24,23.87,26.67,32.58,42.89,10.75,20.01,29.63,40.11,23.83,62.08-5.81,21.97-32.3,29.8-51.37,42.08-17.8,11.47-34.62,27.15-55.77,26.96-21.08-.19-39.57-13.59-55.05-27.95-14.1-13.08-21.31-30.87-27.87-48.98-6.81-18.8-17.42-38.71-10.71-57.55,6.66-18.72,27.18-27.64,44.49-37.34,15.34-8.6,31.59-14.76,49.15-15.14Z"/>
  <path class="st0" d="M55.48,64.09v23.91c0,6.78,3.83,6.29,9.59,5.67,3.96-.43,7.49-1.33,11.45-1.33,5.57,0,5.39-1.61,4.8-7.55-.44-4.43-1.02-8.58-1.02-13.1,0-3.65,1.41-5.02,2.1-8.15.08-.38-23.73-.54-28-.54"/>
  <path class="st0" d="M104.5,64.16c-1.16,8.89-1.1,17.71-1.1,26.64,0,6.09,2.59,8.04,8.82,8.15,5.67.1,11.36,0,17.03,0,6.27,0,3.92-6.97,3.92-11.96s1.68-11.43,1.1-16.31c-.11-.91-2.58-2.14-3.37-2.72-2.11-1.56-2.19-3.44-3.8-5.38-4.34-5.22-3.46-1.01-9.62-.6-4.29.28-8.69,0-12.99,0"/>
  <path class="st0" d="M124.68,60c0,.81-.97,14.39.66,14.74,2.6.57,7.83.34,9.06-2.06"/>
  <path class="st0" d="M79.7,147.02c0-10.11-3.3-18.4-3.3-28.84,8.64,0,18.61-1.22,26.41,2.71,2.48,1.25,3.3.18,3.3,3.39,0,2.69.36,4.84.86,7.46.76,4,6.81,19.72.79,19.72h-13.76c-5.8,0-14.31,2.83-14.31-4.44Z"/>
  <g>
    <path class="st1" d="M100.82,144.41c-.04-.35-.08-.74-.11-1.17.37.24.6.64.71,1.1.05,0,.1,0,.15,0,0-.71.44-1.18,1.73-.76.26.09,0,1.35-.45,2.31.24,1.19-.06,1.2-.43.73-.4.5-.84.6-1.19-.33-.15.26-.36.42-.61.42-2.82,0-1.35-1.9.21-2.31Z"/>
    <path class="st0" d="M100.6,141c.26,11.63,3.41,2.81,2.69,2.58-4.15-1.35.59,6.45-.55,1.88-.79-3.14-6.43,1.26-2.14,1.26,1.43,0,1.47-5.31-2.2-3.21"/>
  </g>
  <path class="st0" d="M124.46,123.25c0,9.76-.46,20.66,1.12,30.07.7,4.18,17.65,2.23,21.23,2.23,6.99,0,4.47-5.92,4.47-12,0-5.43,1.12-10.57,1.12-15.84,0-5.91.17-4.66-5.34-4.46-7.51.28-15.08,0-22.6,0Z"/>
  <path class="st0" d="M154.42,68.74c0,2.98-2.74,34.96.74,35.04,6.41.15,12.37.08,18.64,1.07,7.28,1.14,7.77-4.19,8.55-10.61.94-7.78.51-17.17,4.67-23.86,2.56-4.11-8.57-2.68-10.7-2.76-5.58-.21-14.53-3.51-19.68,0"/>
  <path class="st0" d="M176.17,70c-1.4,7.83-1.54,8,5.23,8"/>
</svg>