<?xml version="1.0" encoding="UTF-8"?>
<svg id="Layer_1" xmlns="http://www.w3.org/2000/svg" version="1.1" viewBox="0 0 248 200.13">
  <!-- Generator: Adobe Illustrator 29.5.1, SVG Export Plug-In . SVG Version: 2.1.0 Build 141)  -->
  <defs>
    <style>
      .st0 {
        fill: #ebfaea;
        fill-rule: evenodd;
      }

      .st1 {
        fill: none;
        stroke: #000;
        stroke-linecap: round;
        stroke-linejoin: round;
        stroke-width: 2px;
      }
    </style>
  </defs>
  <path class="st0" d="M126.97,5.02c19.6.64,35.77,13.89,50.97,26.2,14.39,11.65,27.32,25.02,33.69,42.35,6.53,17.78,6.9,37,2.22,55.34-4.94,19.36-13.11,38.82-29.28,50.69-16.24,11.92-37.46,14.39-57.6,13.08-19.16-1.24-37.21-8.53-52.38-20.22-14.81-11.4-23.37-27.78-31.64-44.48-9.75-19.68-26.96-39.86-20.55-60.85,6.41-20.99,32.17-28.04,51.13-39.31,17.06-10.13,33.58-23.46,53.45-22.81Z"/>
  <path class="st1" d="M145.97,99.62c-21.5,9.16,14.28,22.82,14.28,8.81,0-5.41-5.17-10.64-10.13-12.36-5.9-2.05-20.91-3.43-24.78,3.55-4.42,7.98,2.8,21.76,7.44,28.39,6.56,9.35,20.69,8.17,29.66,3.55,7.76-3.99,15.42-17.66,12.94-26.67-3.63-13.2-14.6-20.51-27.95-22.88-14.51-2.58-30.79-3.47-38.81,11.01-3.33,6.02-6.24,11.55-7.44,18.48-1.38,7.98,3.43,15.45,6.35,22.51,8,19.41,27.55,20.47,46.13,20.68,8.85.1,22.27,2.18,28.56-5.75,6.35-8,8.79-19.56,8.79-29.49,0-15.33-2.35-32.82-15.38-42.7-21.62-16.4-53.83-15.94-79.08-15.66-26.69.3-39.54,30.83-39.54,53.96"/>
</svg>