<svg width="240" height="200" viewBox="0 0 240 200" fill="none" xmlns="http://www.w3.org/2000/svg">
<path fill-rule="evenodd" clip-rule="evenodd" d="M114.203 7.09801C132.079 10.6826 144.696 24.4717 160.618 33.3202C179.61 43.8737 207.205 44.243 216.38 63.8784C225.546 83.4937 215.801 107.858 203.91 125.965C193.511 141.801 171.777 143.665 156.552 154.985C141.003 166.546 132.933 187.613 114.203 192.665C93.1685 198.338 67.5139 197.704 51.1051 183.424C34.8577 169.284 34.7527 144.359 34.0211 122.883C33.4466 106.017 44.751 91.9965 47.4231 75.3317C50.8841 53.7465 36.5579 27.1684 51.8782 11.5145C66.7795 -3.71117 93.2732 2.90098 114.203 7.09801Z" fill="#E8CC98" fill-opacity="0.2"/>
<path d="M63.1146 141.83C62.808 151.633 68.3786 159.404 78.5791 159.215C83.7642 159.119 87.1925 150.115 88.7814 146.123C91.1294 140.223 92.9531 131.46 86.8483 127.128C83.9476 125.07 80.4838 123.274 77.1293 122.085C76.267 121.779 70.7513 120.885 71.5986 119.885C80.4361 109.448 94.7815 101.238 107.253 96.2224C108.823 95.591 116.794 91.5186 118.744 93.0031C119.834 93.8331 119.57 99.2031 119.657 100.193C121.165 117.376 122.208 134.405 124.382 151.542C124.698 154.032 128.029 169.09 124.113 168.873C113.662 168.293 103.619 159.203 99.8428 149.986C92.7055 132.563 89.7985 106.413 95.2249 88.174C97.7515 79.682 105.553 69.9964 113.159 79.8037C123.146 92.6802 116.555 111.621 112.086 125.197C108.248 136.855 108.486 151.115 123.362 152.83C141.697 154.944 160.527 146.731 158.05 125.411C155.011 99.2657 132.608 72.134 109.938 59.8436C103.457 56.3302 95.2771 55.013 88.137 57.4827C74.1669 62.3149 76.4046 82.9034 79.116 93.8616C84.8956 117.219 99.7334 134.764 109.723 155.995C110.963 158.63 119.998 173.863 111.441 168.658C101.465 162.59 95.8565 156.742 95.2249 144.406C94.6635 133.44 94.735 121.48 98.0708 110.924C99.6313 105.986 102.524 97.4087 107.521 94.7201C114.691 90.8623 112.63 128.315 111.549 132.601C110.908 135.139 97.368 166.172 92.1105 159.751C88.5556 155.41 88.1098 146.941 87.4927 141.723C86.1226 130.138 85.323 117.765 91.5736 107.329C99.6445 93.8538 114.638 90.0142 129.376 89.1398C141.323 88.431 159.222 89.1959 166.426 100.73C169.618 105.84 169.789 112.475 170.4 118.275C170.507 119.291 170.887 122.736 172.548 120.69C180.284 111.156 191.323 95.0749 187.046 82.3792C175.563 48.2996 129.983 54.9739 103.172 62.4191C90.9876 65.8026 83.5972 71.3933 84.8079 84.5791C85.9317 96.8199 91.5259 108.349 98.3393 118.382C102.302 124.218 106.778 129.648 111.978 134.426C112.156 134.589 117.819 139.613 117.509 139.738C115.277 140.63 113.84 138.613 110.904 140.65C102.552 146.446 101.118 155.808 100.97 165.278C100.887 170.64 101.095 173.855 101.239 179.175C101.299 181.413 101.272 187.35 99.7354 185.721C92.0709 177.598 85.7617 167.083 79.4382 157.927C67.3317 140.398 40.3795 103.279 63.6515 84.5254C66.0372 82.6029 87.3217 74.3271 87.0631 75.4038C84.6086 85.6233 63.3418 81.8734 56.4562 82.1645C51.0067 82.3949 33.7448 81.3191 32.991 89.73C32.0404 100.337 44.2058 113.894 50.5496 121.012C68.0213 140.614 90.8116 152.454 117.133 152.454C127.114 152.454 138.006 152.315 139.793 140.328C141.667 127.753 132.13 113.465 121.697 107.276C118.265 105.239 123.511 119.045 123.577 119.187C129.444 131.92 138.296 142.429 151.176 148.43C159.131 152.135 170.842 155.742 178.884 150.093C186.744 144.572 183.38 132.07 181.139 124.553C175.662 106.181 162.52 93.05 153.432 76.7989C148.609 68.1755 154.282 66.1633 162.13 63.5995C163.658 63.1003 171.029 59.95 170.614 63.8141C170.24 67.3087 167.567 71.2127 165.352 73.7942C157.547 82.8931 147.037 77.2123 138.45 71.5943C129.715 65.8791 121.679 59.1998 112.837 53.6194C106.791 49.8033 100.044 46.7133 94.4732 42.1907C92.6527 40.7126 80.5204 63.858 79.7604 66.5506C75.9813 79.9391 80.05 93.6955 87.3316 105.129C95.4772 117.92 110.526 129.553 113.159 145.05C114.145 150.847 113.394 157.182 106.286 154.493C85.0888 146.473 76.5006 117.2 74.176 97.2956C70.4566 65.449 76.6868 23.7367 117.455 24.0013C132.983 24.102 144.035 40.4613 151.982 51.7415C160.243 63.4676 167.893 76.506 173.031 89.9447C178.258 103.618 175.34 110.854 161.808 116.719C154.324 119.963 136.678 120.527 136.678 131.26C136.678 140.527 144.52 148.889 151.445 154.117C153.22 155.458 153.776 155.712 155.633 156.639C156.378 157.011 157.571 158.609 157.835 157.82C158.262 156.539 156.449 155.5 155.687 154.386C151.195 147.818 146.485 141.323 141.296 135.284C125.069 116.396 105.062 101.49 84.1098 88.2277C71.3979 80.1815 62.8174 75.3391 49.6368 68.2676C40.8618 63.5597 24.6515 58.2756 17.9023 49.9708C12.6007 43.4472 32.27 40.093 35.1388 39.6152C44.0129 38.1373 53.2931 38.2083 62.2554 38.703C75.44 39.4309 87.8509 44.1479 101.132 44.2833C107.728 44.3505 109.192 43.4268 113.589 38.864C114.777 37.6313 119.855 32.3979 121.858 34.5179C125.244 38.0999 127.059 46.6384 128.141 51.1513C132.836 70.734 124.944 89.3822 119.818 107.919C117.68 115.652 120.174 131.256 130.235 133.084C133.288 133.639 136.553 132.901 139.471 132.172" stroke="black" stroke-width="2" stroke-linecap="round" stroke-linejoin="round"/>
</svg>
