<svg width="106" height="106" viewBox="0 0 106 106" fill="none" xmlns="http://www.w3.org/2000/svg">
<g clip-path="url(#clip0_2106_3804)">
<path d="M53 106C82.2711 106 106 82.2711 106 53C106 23.7289 82.2711 0 53 0C23.7289 0 0 23.7289 0 53C0 82.2711 23.7289 106 53 106Z" fill="#101010"/>
<path d="M74.1073 41.0749H68.7675C67.8003 33.6019 61.4005 27.8249 53.6625 27.8249C45.9245 27.8249 39.5248 33.6019 38.5575 41.0749H33.2178C34.2248 30.6604 42.9963 22.5249 53.6625 22.5249C64.3288 22.5249 73.1003 30.6604 74.1073 41.0749Z" fill="white"/>
<path d="M63.7458 63.6C69.801 60.1815 73.9615 53.7685 74.1868 46.375H68.8868C68.5423 54.484 61.851 60.95 53.6625 60.95H38.425V46.375H33.125V80.825H38.425V66.25H53.6625C61.851 66.25 68.5423 72.716 68.8868 80.825H74.1868C73.9615 73.4315 69.801 67.0185 63.7458 63.6Z" fill="white"/>
</g>
<defs>
<clipPath id="clip0_2106_3804">
<rect width="106" height="106" fill="white"/>
</clipPath>
</defs>
</svg>
