<svg width="82" height="82" viewBox="0 0 82 82" fill="none" xmlns="http://www.w3.org/2000/svg">
<path d="M48.5 3C52.8812 3 56.5674 5.96649 57.665 10H60C64.9706 10 69 14.0294 69 19V66.5C69 71.4706 64.9706 75.5 60 75.5H22C17.0294 75.5 13 71.4706 13 66.5V19C13 14.0294 17.0294 10 22 10H24.335C25.4326 5.96649 29.1188 3 33.5 3H48.5ZM22 16C20.3431 16 19 17.3431 19 19V66.5C19 68.1569 20.3431 69.5 22 69.5H60C61.6569 69.5 63 68.1569 63 66.5V19C63 17.3431 61.6569 16 60 16H57.332C55.9382 19.5142 52.5104 22 48.5 22H33.5C29.4896 22 26.0618 19.5142 24.668 16H22ZM29 29C30.6569 29 32 30.3431 32 32V59C32 60.6569 30.6569 62 29 62C27.3431 62 26 60.6569 26 59V32C26 30.3431 27.3431 29 29 29ZM41 35C42.6569 35 44 36.3431 44 38V59C44 60.6569 42.6569 62 41 62C39.3431 62 38 60.6569 38 59V38C38 36.3431 39.3431 35 41 35ZM53 39C54.6569 39 56 40.3431 56 42V59C56 60.6569 54.6569 62 53 62C51.3431 62 50 60.6569 50 59V42C50 40.3431 51.3431 39 53 39ZM33.5 9C31.567 9 30 10.567 30 12.5C30 14.433 31.567 16 33.5 16H48.5C50.433 16 52 14.433 52 12.5C52 10.567 50.433 9 48.5 9H33.5Z" fill="#485EBE"/>
</svg>
