<svg width="82" height="82" viewBox="0 0 82 82" fill="none" xmlns="http://www.w3.org/2000/svg">
<path d="M35.5 7C50.1355 7 62 18.8645 62 33.5C62 39.9567 59.689 45.8725 55.8516 50.4697C56.0327 50.5852 56.2051 50.7207 56.3633 50.8789L74.1201 68.6357C75.2917 69.8073 75.2917 71.7064 74.1201 72.8779C72.9485 74.0495 71.0495 74.0495 69.8779 72.8779L52.1211 55.1211C51.9338 54.9338 51.7788 54.7264 51.6514 54.5078C47.1799 57.9507 41.5798 60 35.5 60C20.8645 60 9 48.1355 9 33.5C9 18.8645 20.8645 7 35.5 7ZM35.5 13C24.1782 13 15 22.1782 15 33.5C15 44.8218 24.1782 54 35.5 54C46.8218 54 56 44.8218 56 33.5C56 22.1782 46.8218 13 35.5 13ZM35 20C36.6569 20 38 21.3431 38 23V31H46C47.6569 31 49 32.3431 49 34C49 35.6569 47.6569 37 46 37H38V44C38 45.6569 36.6569 47 35 47C33.3431 47 32 45.6569 32 44V37H24C22.3431 37 21 35.6569 21 34C21 32.3431 22.3431 31 24 31H32V23C32 21.3431 33.3431 20 35 20Z" fill="#485EBE"/>
</svg>
