<svg width="82" height="82" viewBox="0 0 82 82" fill="none" xmlns="http://www.w3.org/2000/svg">
<path d="M28 44C39.598 44 49 53.402 49 65V68H7V65C7 53.402 16.402 44 28 44ZM71 39C72.6569 39 74 40.3431 74 42C74 43.6569 72.6569 45 71 45H48C46.3431 45 45 43.6569 45 42C45 40.3431 46.3431 39 48 39H71ZM27 21C32.5228 21 37 25.4772 37 31C37 36.5228 32.5228 41 27 41C21.4772 41 17 36.5228 17 31C17 25.4772 21.4772 21 27 21ZM71 27C72.6569 27 74 28.3431 74 30C74 31.6569 72.6569 33 71 33H48C46.3431 33 45 31.6569 45 30C45 28.3431 46.3431 27 48 27H71ZM71 15C72.6569 15 74 16.3431 74 18C74 19.6569 72.6569 21 71 21H48C46.3431 21 45 19.6569 45 18C45 16.3431 46.3431 15 48 15H71Z" fill="#485EBE"/>
</svg>
