<svg width="82" height="82" viewBox="0 0 82 82" fill="none" xmlns="http://www.w3.org/2000/svg">
<path d="M60 10C64.9706 10 69 14.0294 69 19V52.5H63V19C63 17.3431 61.6569 16 60 16H22C20.3431 16 19 17.3431 19 19V66.5C19 68.1569 20.3431 69.5 22 69.5H45.5V75.5H22C17.0294 75.5 13 71.4706 13 66.5V19C13 14.0294 17.0294 10 22 10H60ZM47 40C54.1797 40 60 45.8203 60 53C60 55.6993 59.1769 58.2062 57.7686 60.2842L67.1211 69.6357C68.2925 70.8073 68.2926 72.7074 67.1211 73.8789C65.9496 75.0504 64.0495 75.0503 62.8779 73.8789L53.3457 64.3467C51.4687 65.3987 49.3048 66 47 66C39.8203 66 34 60.1797 34 53C34 45.8203 39.8203 40 47 40ZM47 46C43.134 46 40 49.134 40 53C40 56.866 43.134 60 47 60C50.866 60 54 56.866 54 53C54 49.134 50.866 46 47 46ZM36 34C37.6569 34 39 35.3431 39 37C39 38.6569 37.6569 40 36 40H27C25.3431 40 24 38.6569 24 37C24 35.3431 25.3431 34 27 34H36ZM48 22C49.6569 22 51 23.3431 51 25C51 26.6569 49.6569 28 48 28H27C25.3431 28 24 26.6569 24 25C24 23.3431 25.3431 22 27 22H48Z" fill="#485EBE"/>
</svg>
