<svg width="240" height="41" viewBox="0 0 240 41" fill="none" xmlns="http://www.w3.org/2000/svg">
<path d="M59.737 32.404H64.4584V13.8617H70.6352V9.38818H53.625V13.8617H59.737V32.404Z" fill="white"/>
<path d="M70.6406 32.4038H75.0711V24.6563C75.0711 21.9656 76.4616 20.3447 78.5636 20.3447C79.3074 20.3447 79.8895 20.4744 80.5686 20.7015V16.1954C80.0189 16.0334 79.5661 16.001 79.081 16.001C77.2701 16.001 75.6208 17.2003 75.0711 18.7888V16.1954H70.6406V32.4038Z" fill="white"/>
<path d="M89.0762 32.7603C91.3077 32.7603 92.9892 31.6257 93.7331 30.5885V32.4038H98.1636V16.1954H93.7331V18.0107C92.9892 16.9734 91.3077 15.8389 89.0762 15.8389C84.7751 15.8389 81.4766 19.7289 81.4766 24.2995C81.4766 28.8703 84.7751 32.7603 89.0762 32.7603ZM90.0141 28.7082C87.5563 28.7082 85.9393 26.8605 85.9393 24.2995C85.9393 21.7387 87.5563 19.891 90.0141 19.891C92.4718 19.891 94.0888 21.7387 94.0888 24.2995C94.0888 26.8605 92.4718 28.7082 90.0141 28.7082Z" fill="white"/>
<path d="M108.709 32.7604C110.94 32.7604 112.622 31.6258 113.366 30.5885V32.4038H117.796V8.09131H113.366V18.0107C112.622 16.9734 110.94 15.8389 108.709 15.8389C104.408 15.8389 101.109 19.7289 101.109 24.2995C101.109 28.8703 104.408 32.7604 108.709 32.7604ZM109.647 28.7082C107.189 28.7082 105.572 26.8605 105.572 24.2995C105.572 21.7387 107.189 19.891 109.647 19.891C112.104 19.891 113.721 21.7387 113.721 24.2995C113.721 26.8605 112.104 28.7082 109.647 28.7082Z" fill="white"/>
<path d="M123.978 13.5375C125.562 13.5375 126.823 12.2732 126.823 10.7172C126.823 9.16122 125.562 7.89697 123.978 7.89697C122.457 7.89697 121.164 9.16122 121.164 10.7172C121.164 12.2732 122.457 13.5375 123.978 13.5375ZM121.778 32.404H126.209V16.1956H121.778V32.404Z" fill="white"/>
<path d="M130.141 32.4038H134.571V24.4941C134.571 21.3821 136.091 19.891 138.161 19.891C140.004 19.891 141.007 21.3172 141.007 23.6513V32.4038H145.437V22.9057C145.437 18.6914 143.109 15.8389 139.196 15.8389C137.093 15.8389 135.444 16.7466 134.571 18.0433V16.1954H130.141V32.4038Z" fill="white"/>
<path d="M156.71 28.1896C154.479 28.1896 152.603 26.5039 152.603 24.0403C152.603 21.5442 154.479 19.891 156.71 19.891C158.942 19.891 160.818 21.5442 160.818 24.0403C160.818 26.5039 158.942 28.1896 156.71 28.1896ZM156.193 39.503C161.141 39.503 164.892 36.9744 164.892 31.1395V16.1954H160.461V18.0107C159.589 16.7466 157.842 15.8389 155.773 15.8389C151.536 15.8389 148.141 19.4695 148.141 24.0403C148.141 28.5785 151.536 32.2092 155.773 32.2092C157.842 32.2092 159.589 31.2692 160.461 30.0697V31.1719C160.461 33.7652 158.748 35.613 156.128 35.613C154.317 35.613 152.506 34.997 151.083 33.6032L148.658 36.9096C150.501 38.6926 153.379 39.503 156.193 39.503Z" fill="white"/>
<path d="M174.257 32.404H178.428L187.936 9.38818H182.762L176.359 25.3696L169.86 9.38818H164.781L174.257 32.404Z" fill="white"/>
<path d="M192.008 13.5375C193.593 13.5375 194.855 12.2732 194.855 10.7172C194.855 9.16122 193.593 7.89697 192.008 7.89697C190.488 7.89697 189.195 9.16122 189.195 10.7172C189.195 12.2732 190.488 13.5375 192.008 13.5375ZM189.81 32.404H194.24V16.1956H189.81V32.404Z" fill="white"/>
<path d="M205.703 32.7603C209.099 32.7603 211.686 31.334 213.205 29.1297L209.908 26.666C209.163 27.8006 207.772 28.7082 205.735 28.7082C203.601 28.7082 201.692 27.5088 201.435 25.337H213.529C213.626 24.6562 213.594 24.2024 213.594 23.8134C213.594 18.5294 209.874 15.8389 205.638 15.8389C200.723 15.8389 197.133 19.5019 197.133 24.2995C197.133 29.4215 200.884 32.7603 205.703 32.7603ZM201.595 22.3221C202.017 20.3447 203.86 19.5019 205.509 19.5019C207.158 19.5019 208.775 20.3772 209.163 22.3221H201.595Z" fill="white"/>
<path d="M230.188 32.4037H234.587L239.924 16.1953H235.17L232.13 26.5686L228.831 16.1953H225.434L222.169 26.5686L219.097 16.1953H214.375L219.743 32.4037H224.142L227.148 23.1974L230.188 32.4037Z" fill="white"/>
<path fill-rule="evenodd" clip-rule="evenodd" d="M17.8701 32.4149H9.36056V17.9138H0V9.38379H17.8701V32.4149ZM30.6345 14.5018C30.6345 17.3283 28.3486 19.6199 25.5288 19.6199C22.709 19.6199 20.4231 17.3283 20.4231 14.5018C20.4231 11.6752 22.709 9.38379 25.5288 9.38379C28.3486 9.38379 30.6345 11.6752 30.6345 14.5018ZM25.5288 32.4149L35.3149 9.38379H45.5263L35.7403 32.4149H25.5288Z" fill="white"/>
</svg>
